<mxfile host="app.diagrams.net" agent="Mozilla/5.0 (Windows NT 10.0; Win64; x64) AppleWebKit/537.36 (KHTML, like Gecko) Chrome/133.0.0.0 Safari/537.36" version="26.1.0">
  <diagram name="Page-1" id="GAXhWgXY3Mdr9NYjEp-w">
    <mxGraphModel dx="1235" dy="624" grid="1" gridSize="10" guides="1" tooltips="1" connect="1" arrows="1" fold="1" page="1" pageScale="1" pageWidth="827" pageHeight="1169" math="0" shadow="0">
      <root>
        <mxCell id="0" />
        <mxCell id="1" parent="0" />
        <mxCell id="6AWZt8sm1g47SUFo5E9d-1" value="XML_orarend" style="ellipse;whiteSpace=wrap;html=1;" vertex="1" parent="1">
          <mxGeometry x="370" y="10" width="120" height="80" as="geometry" />
        </mxCell>
        <mxCell id="6AWZt8sm1g47SUFo5E9d-3" value="" style="ellipse;whiteSpace=wrap;html=1;" vertex="1" parent="1">
          <mxGeometry x="370" y="110" width="120" height="80" as="geometry" />
        </mxCell>
        <mxCell id="6AWZt8sm1g47SUFo5E9d-4" value="" style="ellipse;whiteSpace=wrap;html=1;" vertex="1" parent="1">
          <mxGeometry x="370" y="110" width="120" height="80" as="geometry" />
        </mxCell>
        <mxCell id="6AWZt8sm1g47SUFo5E9d-5" value="ora" style="ellipse;whiteSpace=wrap;html=1;" vertex="1" parent="1">
          <mxGeometry x="380" y="115" width="100" height="70" as="geometry" />
        </mxCell>
        <mxCell id="6AWZt8sm1g47SUFo5E9d-6" value="w" style="endArrow=none;html=1;rounded=0;exitX=1;exitY=0;exitDx=0;exitDy=0;entryX=0.007;entryY=0.63;entryDx=0;entryDy=0;entryPerimeter=0;" edge="1" parent="1" source="6AWZt8sm1g47SUFo5E9d-8" target="6AWZt8sm1g47SUFo5E9d-4">
          <mxGeometry width="50" height="50" relative="1" as="geometry">
            <mxPoint x="250" y="230" as="sourcePoint" />
            <mxPoint x="360" y="170" as="targetPoint" />
          </mxGeometry>
        </mxCell>
        <mxCell id="6AWZt8sm1g47SUFo5E9d-7" value="w" style="endArrow=none;html=1;rounded=0;entryX=0.993;entryY=0.7;entryDx=0;entryDy=0;entryPerimeter=0;exitX=0;exitY=0;exitDx=0;exitDy=0;" edge="1" parent="1" source="6AWZt8sm1g47SUFo5E9d-9" target="6AWZt8sm1g47SUFo5E9d-4">
          <mxGeometry width="50" height="50" relative="1" as="geometry">
            <mxPoint x="600" y="230" as="sourcePoint" />
            <mxPoint x="500" y="170" as="targetPoint" />
          </mxGeometry>
        </mxCell>
        <mxCell id="6AWZt8sm1g47SUFo5E9d-8" value="ID" style="rhombus;whiteSpace=wrap;html=1;" vertex="1" parent="1">
          <mxGeometry x="170" y="210" width="80" height="80" as="geometry" />
        </mxCell>
        <mxCell id="6AWZt8sm1g47SUFo5E9d-9" value="tipus" style="rhombus;whiteSpace=wrap;html=1;" vertex="1" parent="1">
          <mxGeometry x="590" y="210" width="80" height="80" as="geometry" />
        </mxCell>
        <mxCell id="6AWZt8sm1g47SUFo5E9d-10" value="targy" style="ellipse;whiteSpace=wrap;html=1;" vertex="1" parent="1">
          <mxGeometry x="100" y="340" width="120" height="80" as="geometry" />
        </mxCell>
        <mxCell id="6AWZt8sm1g47SUFo5E9d-11" value="idopont" style="ellipse;whiteSpace=wrap;html=1;" vertex="1" parent="1">
          <mxGeometry x="230" y="340" width="120" height="80" as="geometry" />
        </mxCell>
        <mxCell id="6AWZt8sm1g47SUFo5E9d-12" value="helyszin" style="ellipse;whiteSpace=wrap;html=1;" vertex="1" parent="1">
          <mxGeometry x="370" y="340" width="120" height="80" as="geometry" />
        </mxCell>
        <mxCell id="6AWZt8sm1g47SUFo5E9d-13" value="oktato" style="ellipse;whiteSpace=wrap;html=1;" vertex="1" parent="1">
          <mxGeometry x="510" y="340" width="120" height="80" as="geometry" />
        </mxCell>
        <mxCell id="6AWZt8sm1g47SUFo5E9d-14" value="szak" style="ellipse;whiteSpace=wrap;html=1;" vertex="1" parent="1">
          <mxGeometry x="640" y="340" width="120" height="80" as="geometry" />
        </mxCell>
        <mxCell id="6AWZt8sm1g47SUFo5E9d-15" value="" style="endArrow=none;html=1;rounded=0;exitX=1;exitY=0;exitDx=0;exitDy=0;entryX=0.5;entryY=1;entryDx=0;entryDy=0;" edge="1" parent="1" source="6AWZt8sm1g47SUFo5E9d-10" target="6AWZt8sm1g47SUFo5E9d-4">
          <mxGeometry width="50" height="50" relative="1" as="geometry">
            <mxPoint x="200" y="330" as="sourcePoint" />
            <mxPoint x="390" y="190" as="targetPoint" />
          </mxGeometry>
        </mxCell>
        <mxCell id="6AWZt8sm1g47SUFo5E9d-16" value="" style="endArrow=none;html=1;rounded=0;exitX=0.5;exitY=0;exitDx=0;exitDy=0;entryX=0.5;entryY=1;entryDx=0;entryDy=0;" edge="1" parent="1" source="6AWZt8sm1g47SUFo5E9d-11" target="6AWZt8sm1g47SUFo5E9d-4">
          <mxGeometry width="50" height="50" relative="1" as="geometry">
            <mxPoint x="300" y="330" as="sourcePoint" />
            <mxPoint x="420" y="190" as="targetPoint" />
          </mxGeometry>
        </mxCell>
        <mxCell id="6AWZt8sm1g47SUFo5E9d-17" value="" style="endArrow=none;html=1;rounded=0;exitX=0.5;exitY=0;exitDx=0;exitDy=0;" edge="1" parent="1" source="6AWZt8sm1g47SUFo5E9d-12">
          <mxGeometry width="50" height="50" relative="1" as="geometry">
            <mxPoint x="440" y="330" as="sourcePoint" />
            <mxPoint x="430" y="190" as="targetPoint" />
          </mxGeometry>
        </mxCell>
        <mxCell id="6AWZt8sm1g47SUFo5E9d-18" value="" style="endArrow=none;html=1;rounded=0;entryX=0.5;entryY=1;entryDx=0;entryDy=0;exitX=0.5;exitY=0;exitDx=0;exitDy=0;" edge="1" parent="1" source="6AWZt8sm1g47SUFo5E9d-13" target="6AWZt8sm1g47SUFo5E9d-4">
          <mxGeometry width="50" height="50" relative="1" as="geometry">
            <mxPoint x="540" y="330" as="sourcePoint" />
            <mxPoint x="470" y="180" as="targetPoint" />
          </mxGeometry>
        </mxCell>
        <mxCell id="6AWZt8sm1g47SUFo5E9d-19" value="" style="endArrow=none;html=1;rounded=0;exitX=0.5;exitY=0;exitDx=0;exitDy=0;" edge="1" parent="1" source="6AWZt8sm1g47SUFo5E9d-14">
          <mxGeometry width="50" height="50" relative="1" as="geometry">
            <mxPoint x="660" y="330" as="sourcePoint" />
            <mxPoint x="430" y="190" as="targetPoint" />
          </mxGeometry>
        </mxCell>
        <mxCell id="6AWZt8sm1g47SUFo5E9d-20" value="" style="endArrow=none;html=1;rounded=0;entryX=0.5;entryY=1;entryDx=0;entryDy=0;exitX=0.5;exitY=0;exitDx=0;exitDy=0;" edge="1" parent="1" source="6AWZt8sm1g47SUFo5E9d-4" target="6AWZt8sm1g47SUFo5E9d-1">
          <mxGeometry width="50" height="50" relative="1" as="geometry">
            <mxPoint x="390" y="300" as="sourcePoint" />
            <mxPoint x="440" y="250" as="targetPoint" />
          </mxGeometry>
        </mxCell>
        <mxCell id="6AWZt8sm1g47SUFo5E9d-22" value="tol" style="ellipse;whiteSpace=wrap;html=1;" vertex="1" parent="1">
          <mxGeometry x="210" y="505" width="120" height="80" as="geometry" />
        </mxCell>
        <mxCell id="6AWZt8sm1g47SUFo5E9d-23" value="ig" style="ellipse;whiteSpace=wrap;html=1;" vertex="1" parent="1">
          <mxGeometry x="340" y="505" width="120" height="80" as="geometry" />
        </mxCell>
        <mxCell id="6AWZt8sm1g47SUFo5E9d-24" value="nap" style="ellipse;whiteSpace=wrap;html=1;" vertex="1" parent="1">
          <mxGeometry x="40" y="505" width="120" height="80" as="geometry" />
        </mxCell>
        <mxCell id="6AWZt8sm1g47SUFo5E9d-34" value="" style="endArrow=none;html=1;rounded=0;entryX=0.5;entryY=1;entryDx=0;entryDy=0;" edge="1" parent="1" source="6AWZt8sm1g47SUFo5E9d-24" target="6AWZt8sm1g47SUFo5E9d-11">
          <mxGeometry width="50" height="50" relative="1" as="geometry">
            <mxPoint x="390" y="400" as="sourcePoint" />
            <mxPoint x="240" y="430" as="targetPoint" />
          </mxGeometry>
        </mxCell>
        <mxCell id="6AWZt8sm1g47SUFo5E9d-35" value="" style="endArrow=none;html=1;rounded=0;entryX=0.5;entryY=1;entryDx=0;entryDy=0;exitX=0.5;exitY=0;exitDx=0;exitDy=0;" edge="1" parent="1" source="6AWZt8sm1g47SUFo5E9d-22" target="6AWZt8sm1g47SUFo5E9d-11">
          <mxGeometry width="50" height="50" relative="1" as="geometry">
            <mxPoint x="195" y="477" as="sourcePoint" />
            <mxPoint x="258" y="418" as="targetPoint" />
          </mxGeometry>
        </mxCell>
        <mxCell id="6AWZt8sm1g47SUFo5E9d-36" value="" style="endArrow=none;html=1;rounded=0;entryX=0.5;entryY=1;entryDx=0;entryDy=0;" edge="1" parent="1" source="6AWZt8sm1g47SUFo5E9d-23" target="6AWZt8sm1g47SUFo5E9d-11">
          <mxGeometry width="50" height="50" relative="1" as="geometry">
            <mxPoint x="290" y="460" as="sourcePoint" />
            <mxPoint x="300" y="430" as="targetPoint" />
          </mxGeometry>
        </mxCell>
        <mxCell id="6AWZt8sm1g47SUFo5E9d-44" value="" style="endArrow=none;html=1;rounded=0;entryX=1;entryY=1;entryDx=0;entryDy=0;exitX=0;exitY=0.5;exitDx=0;exitDy=0;" edge="1" parent="1" target="6AWZt8sm1g47SUFo5E9d-11">
          <mxGeometry width="50" height="50" relative="1" as="geometry">
            <mxPoint x="377.0165049915338" y="447.6335407385252" as="sourcePoint" />
            <mxPoint x="410" y="260" as="targetPoint" />
          </mxGeometry>
        </mxCell>
        <mxCell id="6AWZt8sm1g47SUFo5E9d-45" value="" style="endArrow=none;html=1;rounded=0;entryX=1;entryY=1;entryDx=0;entryDy=0;exitX=0;exitY=0.5;exitDx=0;exitDy=0;" edge="1" parent="1" target="6AWZt8sm1g47SUFo5E9d-12">
          <mxGeometry width="50" height="50" relative="1" as="geometry">
            <mxPoint x="497.0165049915338" y="447.6335407385252" as="sourcePoint" />
            <mxPoint x="342" y="418" as="targetPoint" />
          </mxGeometry>
        </mxCell>
        <mxCell id="6AWZt8sm1g47SUFo5E9d-46" value="" style="endArrow=none;html=1;rounded=0;entryX=1;entryY=1;entryDx=0;entryDy=0;exitX=0;exitY=0.5;exitDx=0;exitDy=0;" edge="1" parent="1" target="6AWZt8sm1g47SUFo5E9d-13">
          <mxGeometry width="50" height="50" relative="1" as="geometry">
            <mxPoint x="627.0165049915338" y="447.6335407385252" as="sourcePoint" />
            <mxPoint x="482" y="418" as="targetPoint" />
          </mxGeometry>
        </mxCell>
        <mxCell id="6AWZt8sm1g47SUFo5E9d-47" value="" style="endArrow=none;html=1;rounded=0;entryX=1;entryY=1;entryDx=0;entryDy=0;exitX=0;exitY=0.5;exitDx=0;exitDy=0;" edge="1" parent="1" target="6AWZt8sm1g47SUFo5E9d-14">
          <mxGeometry width="50" height="50" relative="1" as="geometry">
            <mxPoint x="767.0165049915338" y="437.6335407385252" as="sourcePoint" />
            <mxPoint x="622" y="418" as="targetPoint" />
          </mxGeometry>
        </mxCell>
        <mxCell id="6AWZt8sm1g47SUFo5E9d-48" value="" style="endArrow=none;html=1;rounded=0;entryX=0;entryY=1;entryDx=0;entryDy=0;exitX=0.5;exitY=0;exitDx=0;exitDy=0;" edge="1" parent="1" target="6AWZt8sm1g47SUFo5E9d-10">
          <mxGeometry width="50" height="50" relative="1" as="geometry">
            <mxPoint x="82.36645926147503" y="427.0165049915338" as="sourcePoint" />
            <mxPoint x="752" y="418" as="targetPoint" />
          </mxGeometry>
        </mxCell>
        <mxCell id="6AWZt8sm1g47SUFo5E9d-49" value="tipus" style="rhombus;whiteSpace=wrap;html=1;" vertex="1" parent="1">
          <mxGeometry x="20" y="400" width="80" height="80" as="geometry" />
        </mxCell>
        <mxCell id="6AWZt8sm1g47SUFo5E9d-50" value="tipus" style="rhombus;whiteSpace=wrap;html=1;" vertex="1" parent="1">
          <mxGeometry x="360" y="420" width="80" height="80" as="geometry" />
        </mxCell>
        <mxCell id="6AWZt8sm1g47SUFo5E9d-51" value="tipus" style="rhombus;whiteSpace=wrap;html=1;" vertex="1" parent="1">
          <mxGeometry x="480" y="425" width="80" height="80" as="geometry" />
        </mxCell>
        <mxCell id="6AWZt8sm1g47SUFo5E9d-52" value="tipus" style="rhombus;whiteSpace=wrap;html=1;" vertex="1" parent="1">
          <mxGeometry x="600" y="425" width="80" height="80" as="geometry" />
        </mxCell>
        <mxCell id="6AWZt8sm1g47SUFo5E9d-53" value="tipus" style="rhombus;whiteSpace=wrap;html=1;" vertex="1" parent="1">
          <mxGeometry x="747" y="420" width="80" height="80" as="geometry" />
        </mxCell>
      </root>
    </mxGraphModel>
  </diagram>
</mxfile>
